<svg width="16" height="17" viewBox="0 0 16 17" fill="none" xmlns="http://www.w3.org/2000/svg">
<path d="M14.9501 13.8201C14.8501 12.2201 13.3001 10.9701 13.3001 10.9701C13.3001 10.9701 11.8001 12.2201 11.6501 13.8201C11.6501 13.8701 11.6501 13.9201 11.6501 14.0201C11.6501 14.9201 12.4001 15.6701 13.3001 15.6701C14.2001 15.6701 14.9501 14.9201 14.9501 14.0201C14.9501 13.9201 14.9501 13.8701 14.9501 13.8201Z" stroke="#606580" stroke-miterlimit="10" stroke-linecap="round" stroke-linejoin="round"/>
<path d="M10.25 6.37013L12.75 8.87013L11.7 9.02013L6.50002 14.1701C6.00002 14.6701 5.20002 14.6701 4.70002 14.1701L1.40002 10.8701C0.900024 10.3701 0.900024 9.57013 1.40002 9.07013L5.60002 4.87013L5.80002 4.37013V2.12013C5.80002 1.57013 6.25002 1.12013 6.80002 1.12013C7.35002 1.12013 7.80002 1.57013 7.80002 2.12013V7.02013" stroke="#606580" stroke-miterlimit="10" stroke-linecap="round" stroke-linejoin="round"/>
</svg>
