<svg width="16" height="17" viewBox="0 0 16 17" fill="none" xmlns="http://www.w3.org/2000/svg">
<path d="M9.90002 2.79022H5.90002" stroke="#606580" stroke-miterlimit="10" stroke-linecap="round" stroke-linejoin="round"/>
<path d="M3.95 2.79022H2.65C1.9 2.79022 1.25 3.44022 1.25 4.19022V13.8402C1.25 14.5902 1.9 15.2402 2.65 15.2402H13.35C14.1 15.2402 14.75 14.5902 14.75 13.8402V4.19022C14.75 3.44022 14.1 2.79022 13.35 2.79022H12.05" stroke="#606580" stroke-miterlimit="10" stroke-linecap="round" stroke-linejoin="round"/>
<path d="M4.94998 1.24023C4.44998 1.24023 4.09998 1.64023 4.09998 2.09023V4.04023C4.09998 4.54023 4.49998 4.89023 4.94998 4.89023C5.44998 4.89023 5.79998 4.49023 5.79998 4.04023V2.09023C5.79998 1.64023 5.44998 1.24023 4.94998 1.24023Z" stroke="#606580" stroke-miterlimit="10" stroke-linecap="round" stroke-linejoin="round"/>
<path d="M11.0498 1.24023C10.5498 1.24023 10.1998 1.64023 10.1998 2.09023V4.04023C10.1998 4.54023 10.5998 4.89023 11.0498 4.89023C11.5498 4.89023 11.8998 4.49023 11.8998 4.04023V2.09023C11.8998 1.64023 11.5498 1.24023 11.0498 1.24023Z" stroke="#606580" stroke-miterlimit="10" stroke-linecap="round" stroke-linejoin="round"/>
<path d="M1.44995 7.09024H14.25" stroke="#606580" stroke-miterlimit="10" stroke-linecap="round" stroke-linejoin="round"/>
</svg>
