<svg width="15" height="15" viewBox="0 0 15 15" fill="none" xmlns="http://www.w3.org/2000/svg">
<path d="M11.45 8V4.7C9.79999 3.05 8.89999 2.15 7.24999 0.5H1.74999C1.24999 0.5 0.799988 0.9 0.799988 1.45V13.6C0.799988 14.1 1.24999 14.5 1.74999 14.5H4.59999" stroke="#E65437" stroke-width="0.8" stroke-miterlimit="10" stroke-linecap="round" stroke-linejoin="round"/>
<path d="M7 0.5V5H11.45" stroke="#E65437" stroke-width="0.8" stroke-miterlimit="10" stroke-linecap="round" stroke-linejoin="round"/>
<path d="M6.07031 10.5146C6.07031 10.7178 6.03809 10.9111 5.97363 11.0947C5.90918 11.2783 5.81641 11.4316 5.69531 11.5547C5.62109 11.6309 5.53906 11.7012 5.44922 11.7656C5.36133 11.8301 5.26367 11.8848 5.15625 11.9297C5.04883 11.9746 4.93164 12.0098 4.80469 12.0352C4.67969 12.0605 4.53906 12.0732 4.38281 12.0732H3.80859V13.5H2.71289V9.1377H4.40625C4.6582 9.1377 4.875 9.16113 5.05664 9.20801C5.24023 9.25293 5.40625 9.3252 5.55469 9.4248C5.71875 9.53418 5.8457 9.68066 5.93555 9.86426C6.02539 10.0459 6.07031 10.2627 6.07031 10.5146ZM4.94531 10.541C4.94531 10.418 4.91602 10.3125 4.85742 10.2246C4.79883 10.1348 4.72852 10.0732 4.64648 10.04C4.54297 9.99512 4.44336 9.96973 4.34766 9.96387C4.25391 9.95605 4.12598 9.95215 3.96387 9.95215H3.80859V11.2588H3.88477C3.98828 11.2588 4.08594 11.2578 4.17773 11.2559C4.26953 11.2539 4.34961 11.2471 4.41797 11.2354C4.47656 11.2256 4.53809 11.207 4.60254 11.1797C4.66895 11.1504 4.71973 11.1182 4.75488 11.083C4.8291 11.0107 4.87891 10.9355 4.9043 10.8574C4.93164 10.7793 4.94531 10.6738 4.94531 10.541Z" fill="#E65437"/>
<path d="M10.5527 11.3232C10.5527 11.7295 10.4639 12.0938 10.2861 12.416C10.1084 12.7363 9.88379 12.9824 9.6123 13.1543C9.38574 13.3008 9.13867 13.3955 8.87109 13.4385C8.60547 13.4795 8.32227 13.5 8.02148 13.5H6.65625V9.1377H8.00977C8.31641 9.1377 8.60352 9.15723 8.87109 9.19629C9.13867 9.23535 9.38965 9.33008 9.62402 9.48047C9.91113 9.66406 10.1377 9.91211 10.3037 10.2246C10.4697 10.5352 10.5527 10.9014 10.5527 11.3232ZM9.42773 11.3145C9.42773 11.0273 9.37793 10.7822 9.27832 10.5791C9.18066 10.374 9.0293 10.2139 8.82422 10.0986C8.67578 10.0166 8.51953 9.97168 8.35547 9.96387C8.19336 9.95605 7.99902 9.95215 7.77246 9.95215H7.75195V12.6826H7.77246C8.01855 12.6826 8.22559 12.6787 8.39355 12.6709C8.56348 12.6611 8.72461 12.6084 8.87695 12.5127C9.05664 12.3994 9.19336 12.2432 9.28711 12.0439C9.38086 11.8447 9.42773 11.6016 9.42773 11.3145Z" fill="#E65437"/>
<path d="M14.124 9.96973H12.293V10.793H13.9775V11.625H12.293V13.5H11.2031V9.1377H14.124V9.96973Z" fill="#E65437"/>
</svg>
