<svg width="14" height="15" viewBox="0 0 14 15" fill="none" xmlns="http://www.w3.org/2000/svg">
<path d="M11.2 8V4.7C9.54999 3.05 8.64999 2.15 6.99999 0.5H1.49999C0.999988 0.5 0.549988 0.9 0.549988 1.45V13.6C0.549988 14.1 0.999988 14.5 1.49999 14.5H4.34999" stroke="#1F6F43" stroke-width="0.8" stroke-miterlimit="10" stroke-linecap="round" stroke-linejoin="round"/>
<path d="M6.75 0.5V5H11.2" stroke="#1F6F43" stroke-width="0.8" stroke-miterlimit="10" stroke-linecap="round" stroke-linejoin="round"/>
<path d="M6.4707 13.5H5.19922L4.36133 12.1084L3.50586 13.5H2.29297L3.70801 11.3027L2.34863 9.1377H3.61719L4.40234 10.4531L5.20801 9.1377H6.42383L5.05566 11.2588L6.4707 13.5Z" fill="#1F6F43"/>
<path d="M9.79883 13.5H6.88672V9.1377H7.98242V12.668H9.79883V13.5Z" fill="#1F6F43"/>
<path d="M11.668 13.5791C11.334 13.5791 11.04 13.5469 10.7861 13.4824C10.5342 13.418 10.2998 13.3379 10.083 13.2422V12.2051H10.1826C10.4014 12.3906 10.6426 12.5332 10.9062 12.6328C11.1699 12.7324 11.4258 12.7822 11.6738 12.7822C11.7363 12.7822 11.8184 12.7754 11.9199 12.7617C12.0234 12.748 12.1064 12.7266 12.1689 12.6973C12.2451 12.6641 12.3096 12.6182 12.3623 12.5596C12.415 12.499 12.4414 12.4199 12.4414 12.3223C12.4414 12.2129 12.3984 12.124 12.3125 12.0557C12.2266 11.9873 12.124 11.9375 12.0049 11.9062C11.8564 11.8672 11.6973 11.8301 11.5273 11.7949C11.3594 11.7598 11.2021 11.7168 11.0557 11.666C10.7178 11.5469 10.4756 11.3867 10.3291 11.1855C10.1826 10.9844 10.1094 10.7324 10.1094 10.4297C10.1094 10.0215 10.2822 9.69141 10.6279 9.43945C10.9736 9.18555 11.4053 9.05859 11.9229 9.05859C12.1826 9.05859 12.4404 9.08496 12.6963 9.1377C12.9541 9.19043 13.1846 9.26172 13.3877 9.35156V10.3477H13.291C13.1289 10.209 12.9307 10.0918 12.6963 9.99609C12.4639 9.90039 12.2246 9.85254 11.9785 9.85254C11.8828 9.85254 11.7969 9.85938 11.7207 9.87305C11.6445 9.88672 11.5645 9.91309 11.4805 9.95215C11.4121 9.9834 11.3525 10.0303 11.3018 10.0928C11.2529 10.1533 11.2285 10.2217 11.2285 10.2979C11.2285 10.4092 11.2676 10.498 11.3457 10.5645C11.4258 10.6289 11.5791 10.6875 11.8057 10.7402C11.9521 10.7734 12.0928 10.8057 12.2275 10.8369C12.3643 10.8682 12.5098 10.9111 12.6641 10.9658C12.9668 11.0752 13.1914 11.2227 13.3379 11.4082C13.4863 11.5918 13.5605 11.835 13.5605 12.1377C13.5605 12.5713 13.3896 12.9199 13.0479 13.1836C12.708 13.4473 12.248 13.5791 11.668 13.5791Z" fill="#1F6F43"/>
</svg>
